<?xml version="1.0" encoding="utf-8"?>
<!-- Generator: Adobe Illustrator 23.0.3, SVG Export Plug-In . SVG Version: 6.00 Build 0)  -->
<svg version="1.1" id="Ebene_1" xmlns="http://www.w3.org/2000/svg" xmlns:xlink="http://www.w3.org/1999/xlink" x="0px" y="0px"
	 viewBox="0 0 1200 450" style="enable-background:new 0 0 1200 450;" xml:space="preserve">
<style type="text/css">
	.st0{fill:#1A1714;}
</style>
<g>
	<path class="st0" d="M164.4,143.1l-73.7,30.4l8.7,86.7l43.4,47.7v-39l21.7,13l21.7-13v39l43.4-47.7l8.7-86.7L164.4,143.1z
		 M215.4,238.3l-51,29.8v0v0l0,0v0l-51-29.8v-51.2l35.7-14.5v35.5l15.3,8.9l15.3-8.9v-35.5l35.7,14.5V238.3z"/>
	<g>
		<path class="st0" d="M386.1,208.9h-0.3l-24.1,70.6h-20.3L317,208h-0.3v71.5h-20.6v-107h28.4l26.9,78.7h0.3l26.7-78.7h28.3v107
			h-20.6V208.9z"/>
		<path class="st0" d="M481.4,280.3h-32.5L431.1,270v-57.5l17.7-10.2h32.5l17.7,10.2V270L481.4,280.3z M452.1,262.4h26.1v-42.2
			h-26.1V262.4z"/>
		<path class="st0" d="M515.9,203.1H530v-12.8l20.9-12.1v24.9h16.8V221h-16.8v40.6h16.8v17.9h-20L530,269.3V221h-14.1V203.1z"/>
		<path class="st0" d="M637.9,280.3h-32.5L587.6,270v-57.5l17.7-10.2h32.5l17.7,10.2V270L637.9,280.3z M608.5,262.4h26.1v-42.2
			h-26.1V262.4z"/>
		<path class="st0" d="M737.3,183.6c7.9,4.5,13.9,10.7,17.9,18.4c4,7.7,6,16.5,6,26.1c0,9.6-2.1,18.3-6.2,26.1
			c-4.1,7.8-10.2,14-18.1,18.5c-7.9,4.5-17.3,6.8-28.1,6.8H678V176.8h30.7C719.9,176.8,729.4,179.1,737.3,183.6z M730.1,260
			c5.1-3.3,9.2-7.7,12.1-13.3c2.9-5.6,4.4-11.8,4.4-18.5c0-6.7-1.5-12.9-4.4-18.5c-2.9-5.6-6.9-10-12.1-13.3
			c-5.1-3.3-11-4.9-17.5-4.9h-19.9v73.3h19.9C719.1,264.8,724.9,263.2,730.1,260z"/>
		<path class="st0" d="M777.8,190.7c-2.1-2.1-3.2-4.7-3.2-7.8s1.1-5.7,3.2-7.8c2.1-2.1,4.7-3.2,7.8-3.2c3.1,0,5.7,1.1,7.8,3.2
			c2.1,2.1,3.2,4.7,3.2,7.8s-1.1,5.7-3.2,7.8c-2.1,2.1-4.7,3.2-7.8,3.2C782.6,193.9,780,192.9,777.8,190.7z M778.3,206.2h14.7v73.3
			h-14.7V206.2z"/>
		<path class="st0" d="M884.6,206.2v68.8c0,14.9-3.5,26.1-10.5,33.6c-7,7.5-16.5,11.3-28.6,11.3c-8,0-14.8-1.3-20.2-3.8
			c-5.5-2.5-10.1-5.3-14-8.4l7.3-13.1c4.3,3.4,8.4,6,12.4,7.9c4,1.9,8.8,2.8,14.5,2.8c7.6,0,13.6-2.4,18-7.3
			c4.3-4.9,6.5-11.8,6.5-20.8v-8.3c-3,3.9-6.5,6.8-10.7,8.9c-4.2,2-8.8,3.1-13.8,3.1c-7,0-13.3-1.7-18.9-5
			c-5.6-3.4-9.9-7.9-13.1-13.8c-3.2-5.8-4.7-12.2-4.7-19.1c0-6.9,1.6-13.3,4.7-19.1c3.2-5.8,7.5-10.4,13.1-13.8
			c5.6-3.4,11.8-5,18.9-5c5,0,9.6,1,13.8,3.1c4.2,2,7.7,5,10.7,8.9v-10.7H884.6z M858.3,262.9c3.6-2.1,6.4-4.9,8.5-8.5
			c2.1-3.6,3.1-7.4,3.1-11.6c0-4.2-1-8-3.1-11.6c-2.1-3.6-4.9-6.4-8.5-8.5c-3.6-2.1-7.4-3.1-11.6-3.1c-4.2,0-8,1-11.6,3.1
			c-3.6,2.1-6.4,4.9-8.5,8.5c-2.1,3.6-3.1,7.4-3.1,11.6c0,4.2,1,8,3.1,11.6c2.1,3.6,4.9,6.4,8.5,8.5c3.6,2.1,7.4,3.1,11.6,3.1
			C850.9,266.1,854.8,265,858.3,262.9z"/>
		<path class="st0" d="M904.9,190.7c-2.1-2.1-3.2-4.7-3.2-7.8s1.1-5.7,3.2-7.8c2.1-2.1,4.7-3.2,7.8-3.2c3.1,0,5.7,1.1,7.8,3.2
			c2.1,2.1,3.2,4.7,3.2,7.8s-1.1,5.7-3.2,7.8c-2.1,2.1-4.7,3.2-7.8,3.2C909.7,193.9,907.1,192.9,904.9,190.7z M905.4,206.2h14.7
			v73.3h-14.7V206.2z"/>
		<path class="st0" d="M947,220.8h-9.8v-14.7h9.8v-29.3h14.7v29.3h14.7v14.7h-14.7v30.6c0,3.5,0.2,6.2,0.5,8.3
			c0.3,2,1.1,3.5,2.4,4.4c1.4,1,3.1,1.5,4.9,1.5c1.9,0,4.2-0.6,6.9-1.8v14.8c-3,1.4-6.6,2.1-10.8,2.1c-6.5,0-11.2-2.3-14.1-6.9
			s-4.4-10.7-4.4-18.3V220.8z"/>
		<path class="st0" d="M1066.7,206.2v73.3h-14.7v-10.7c-3,3.9-6.5,6.8-10.7,8.9c-4.2,2-8.8,3.1-13.8,3.1c-7,0-13.3-1.7-18.9-5
			c-5.6-3.4-9.9-7.9-13.1-13.8c-3.2-5.8-4.7-12.2-4.7-19.1c0-6.9,1.6-13.3,4.7-19.1c3.2-5.8,7.5-10.4,13.1-13.8
			c5.6-3.4,11.8-5,18.9-5c5,0,9.6,1,13.8,3.1c4.2,2,7.7,5,10.7,8.9v-10.7H1066.7z M1040.5,262.9c3.6-2.1,6.4-4.9,8.5-8.5
			c2.1-3.6,3.1-7.4,3.1-11.6c0-4.2-1-8-3.1-11.6c-2.1-3.6-4.9-6.4-8.5-8.5c-3.6-2.1-7.4-3.1-11.6-3.1c-4.2,0-8,1-11.6,3.1
			c-3.6,2.1-6.4,4.9-8.5,8.5c-2.1,3.6-3.1,7.4-3.1,11.6c0,4.2,1,8,3.1,11.6c2.1,3.6,4.9,6.4,8.5,8.5c3.6,2.1,7.4,3.1,11.6,3.1
			C1033,266.1,1036.9,265,1040.5,262.9z"/>
		<path class="st0" d="M1102.2,171.9v107.6h-14.7V171.9H1102.2z"/>
	</g>
</g>
</svg>
