<svg xmlns="http://www.w3.org/2000/svg" height="800" width="1200" viewBox="-54.7521 -98.74925 474.5182 592.4955"><defs><clipPath id="a" clipPathUnits="userSpaceOnUse"><path d="M544.879 2144.04c-80.344-28.12-160.68-56.28-237.289-95.6 16.89-41.46 35.39-79.96 53.961-111.24 82.304-138.65 222.535-291.92 275.508-291.83 52.964-.09 193.203 153.18 275.507 291.83 38.825 65.4 77.329 162.3 101.454 251.89-157.184-.36-316.34 5.88-469.141-45.05z"/></clipPath><clipPath id="b" clipPathUnits="userSpaceOnUse"><path d="M0 0v2550h1238V0z"/></clipPath></defs><path d="M182.63.746c51.55 0 151.402 18.732 176.029 56.192 19.496 29.655-15.52 152.23-49.553 208.592-38.345 63.5-100.863 129.264-126.517 128.718h-.048c-28.054-.619-87.305-66.827-126.515-128.718C20.787 209.905-13.026 86.593 6.471 56.938 31.098 19.478 130.951.746 182.499.746h.132" fill="#fff"/><path d="M152.93 611.652c29.083 0 85.416-10.61 99.31-31.829 11-16.797-8.755-86.227-27.956-118.152-21.633-35.969-56.904-73.219-71.377-72.91h-.027c-15.827.351-49.254 37.853-71.375 72.91-19.881 31.507-38.958 101.355-27.958 118.152 13.894 21.219 70.228 31.829 99.31 31.829h.074z" fill="none" stroke="#231f20" stroke-width=".845" stroke-linecap="round" stroke-linejoin="round" transform="matrix(1.77252 0 0 -1.76545 -88.443 1080.587)"/><g clip-path="url(#b)" transform="matrix(.4254 0 0 -.4237 -88.443 1080.587)"><path d="M1014.02 2189.09c25.33 94.02 34.83 179.98 12.22 213-49.517 72.31-267.013 119.93-389.15 116.4h-.07c-122.133 3.53-339.633-44.09-389.149-116.4-33.84-49.43 4.25-217.5 59.719-353.65 76.609 39.32 156.945 67.48 237.289 95.6 152.801 50.93 311.957 44.69 469.141 45.05" fill="#ed1c24"/><path d="M343.16 2294.09h4.637c7.625 0 12.68 2.81 16.676 7.61 4.211 4.97 6.996 13.41 9.465 25 2.46 11.58 3.25 20.02 1.175 24.98-1.965 4.81-5.836 7.62-13.449 7.62h-4.641zm-26.699 92.35h56.102c47.835 0 57.613-25.65 50.074-61.07-7.66-36.08-35.922-58.42-72.657-58.42h-58.929l25.41 119.49M544.023 2307c-6.121-28.8-29.871-43.2-65.945-43.2-36.082 0-53.715 14.4-47.594 43.2l16.895 79.44h47.324l-16.461-77.46c-2.004-9.43 1.692-13.07 6.656-13.07 4.973 0 10.207 3.64 12.215 13.07l16.465 77.46h47.34L544.023 2307m129.817 4.13c-7-32.93-36.379-47.33-66.008-47.33-41.871 0-55.824 25.49-47.766 63.39 6.758 37.24 34.289 62.4 74.672 62.4 30.125 0 53.012-12.25 45.711-47.34h-43.363c2.23 13.57-2.176 16.22-7.965 16.22-12.254 0-16.082-12.57-20.168-31.77-3.875-18.21-5.754-31.78 6.16-31.78 6.121 0 11.032 3.64 14.371 16.21h44.356m79.332 4.14l.141 45.02h-.336l-19.989-45.02zm-24.102 71.17h61.403l13.004-119.49h-48.989l-.558 19.19h-34.262l-8.875-19.19h-45.352l63.629 119.49m110.684-32.1h-29.441l6.8 32.1h106.27l-6.82-32.1h-29.461l-18.567-87.39h-47.347l18.566 87.39m92.574 32.1h47.32l-25.39-119.49h-47.336l25.406 119.49" fill="#fff"/></g></svg>