<svg xmlns="http://www.w3.org/2000/svg" height="800" width="1200" xml:space="preserve" y="0" x="0" id="shield" version="1.1" viewBox="-150.1125 -195.586 1300.975 1173.516"><style type="text/css">.st1{fill:#f60}.st2{fill:#fff}</style><path d="M510.175 5.669c88.7 64 218.3 102.9 318.6 105.2l10.5.8v132.8h161.1v289.1h-99l-9.7 9.9-24.2 21.5c-108.8 96.6-260.1 212.6-363.1 217h-.9c-79-2.6-212.3-81.3-365.6-215.6l-23.2-20.3-11.9-12.4H.375v-289h164.5v-133.1l10.7-.5c130.3-6.1 229.3-38.6 321-105.6l6.5-5z" fill="#fff" stroke="#000" stroke-width=".75"/><path d="M503.075 14.669c89 69 210 98.6 324.7 107.6v93.9c-24.3-1.3-44.1 24.2-44.1 39.7h205.2v266.4h-190.2c4.5 24.7 37.4 35.6 61.1 34.3-126.4 112.3-266 210.3-356.1 214.2-82.2-2.7-221.1-92.3-358.6-212.8 57 .9 62.1-35.6 62.1-35.6h-195.6v-266.3h204.6c-1-19.4-18.9-37.6-40.2-39.7v-93.9c122-5.8 227.3-35 327.1-107.8z"/><path d="M804.175 142.669v58.9c-22.4 4.7-45.1 35.1-45.1 54.5h-18.5c1.8-36.8 22.4-54.7 45.1-66.9v-29.2c-97.9-2.4-212-44.5-282.9-92.3-64.5 43.4-184.9 89.8-283.8 92.3v29.3c25.1 13 41.4 38.5 42.6 66.8h-19.4c-4.2-29.2-20.9-44.7-41.3-56.1v-56c111.8-6.3 237.6-49.6 302.1-99.5 61.8 50.5 191.3 89.9 301.2 98.2z" class="st1"/><path d="M546.675 117.969l-.2 24.9-31.5-15.5v128.7h-24.7v-128.7l-30.8 15.3.2-24.5s35.6-17.9 43.4-23.6c8.2 5.9 43.6 23.4 43.6 23.4z" class="st1"/><path class="st1" d="M36.575 280.969h928.6v215.4h-928.6z"/><path class="st2" d="M104.575 373.569h14.8v-51.8h20.3v136.1h-20.4v-56.7h-14.5v56.7h-20.6v-136.1h20.3c.1 0 .1 51.8.1 51.8z"/></svg>