<svg xmlns="http://www.w3.org/2000/svg" height="800" width="1200" viewBox="-263.4 -126 2282.8 756"><path d="M0 0h1756v504H0z" fill="#fbfbfb"/><path d="M295.56 295.76c23.16-2.85 47.28 2.19 67.2 14.39 19.67 11.9 35.11 30.76 42.38 52.61 6.21 18.41 5.92 38.46 1.76 57.27-4.57 20.73-15.63 40.19-31.97 53.87-14.03 11.9-31.64 19.22-49.8 21.77-18.13 2.5-36.97 1.1-54.2-5.27-18.9-6.87-35.58-19.83-46.69-36.62-13.12-19.45-18.76-43.41-17.59-66.7 1.14-23.08 11.46-45.36 27.75-61.66 16.2-16.49 38.23-26.98 61.16-29.66zm379.07.03c19.56-2.43 39.84.66 57.68 9.09 16.87 7.89 31.6 20.46 41.72 36.13 10.03 15.32 15.53 33.65 15.23 51.99.1 21.28-5.65 42.77-17.5 60.55-9.28 13.89-22.19 25.4-37.24 32.72-18.88 9.43-40.65 12.24-61.48 9.66-19.8-2.45-38.97-10.71-53.83-24.11-15.4-13.65-25.87-32.43-30.44-52.42-3.43-15.53-4.24-31.84-.74-47.42 4.71-21.44 17.3-40.9 34.5-54.47 14.87-11.94 33.18-19.45 52.1-21.72zm305.47 4.61c30.72-10.77 66.54-5.44 92.55 14.2 4.22 3.1 8.09 6.64 11.85 10.29-10.92 10.84-21.63 21.9-32.73 32.55-10.22-10.64-24.96-16.85-39.72-16.45-12.45.05-24.72 4.83-34.18 12.86-13.91 11.56-21.5 30.33-19.21 48.3 1.65 15.01 9.89 29.13 22.08 38.02 11.67 8.66 26.92 12.35 41.25 9.82 17.57-2.9 33.09-15.04 40.47-31.2-17.15-.02-34.3-.01-51.45 0-.02-14.6 0-29.19-.01-43.79h102.25c-.4 12.37 1.08 24.83-1.08 37.09-3.38 21.13-13.67 41.13-29.08 55.99-18.36 18.31-44.14 28.82-70.06 28.72-25.96.2-51.75-10.3-70.2-28.55-11.67-11.24-20.38-25.44-25.48-40.8-6.96-21.47-6.62-45.3 1.16-66.5 10.13-28.02 33.36-50.97 61.59-60.55zM12.53 494.26c-.08-65.84-.07-131.68 0-197.51 15.17.02 30.33-.02 45.5.01 13.14 20.01 26.21 40.06 39.39 60.03 13.18-20.01 26.26-40.08 39.51-60.04 15.1.01 30.2-.01 45.31.01.01 65.83.02 131.66 0 197.49H136c-.07-38.83.14-77.66-.1-116.49-12.79 20.13-25.71 40.18-38.44 60.35-12.99-19.97-25.58-40.19-38.48-60.21-.46 38.77-.07 77.56-.2 116.34-15.42.03-30.83-.02-46.25.02zM419.51 342c-.04-15.09-.06-30.17.01-45.26 49.99.01 99.97.02 149.95 0 .13 15.06-.05 30.13.1 45.2-17.02.14-34.04.02-51.06.06-.03 50.76.07 101.51-.05 152.27-15.98-.04-31.97-.02-47.95-.01-.06-50.76-.01-101.51-.03-152.26h-50.97zm724.24-45.24c16.01-.01 32.02-.01 48.03 0 .01 46.07-.03 92.15.02 138.22-.27 7.15 6.15 13.46 13.28 13.21 13.3.05 26.62.05 39.93.01 6.78.3 13.29-5.34 13.46-12.22.06-46.41-.04-92.82.05-139.23 16.09.02 32.18-.03 48.27.02-.01 47.74-.02 95.48.01 143.21.41 15.89-6.89 31.73-19.14 41.83-9.34 7.95-21.52 12.3-33.76 12.4-13.98.09-27.97.01-41.96.04-11.8-.07-24.15.94-35.23-4-18.94-7.55-32.57-26.84-32.97-47.27.03-48.74 0-97.48.01-146.22zm199.25 0c47-.02 94-.01 141 0-.02 15.6.03 31.22-.02 46.83-27.17 34.75-54 69.77-81.06 104.61 27.03.04 54.05.02 81.08.01v46.04c-47.33-.01-94.67 0-142 0v-47.37c26.75-34.95 53.51-69.9 80.22-104.88H1343v-45.24zm177.45 45.21c.1-15.08-.03-30.15.07-45.22 46.99.01 93.99-.01 140.99.01-.05 15.46.12 30.92-.08 46.37-9.15 12.57-19.01 24.66-28.41 37.06-17.48 22.68-35.06 45.28-52.47 68.01 26.99.05 53.97-.02 80.96.04-.02 15.34.05 30.68-.03 46.02-47.32-.02-94.64-.02-141.95 0-.12-14.75.01-29.5-.07-44.25.03-1.56-.2-3.33 1.04-4.53 26.39-34.48 52.73-69 79.17-103.46-26.41-.07-52.81.03-79.22-.05zM1697 296.75c15.75.01 31.49-.01 47.24.01.01 65.83.01 131.66 0 197.48-15.75.02-31.49 0-47.24.01v-197.5z" fill="#0a0a0a"/><path d="M298.5 340.82c12.88-2.45 26.54.21 37.73 7 14.48 8.66 25.21 24.06 26.65 41.06.88 13.55-2.66 27.39-10.15 38.74-6.99 10.46-17.46 18.75-29.63 22.24-12.92 3.9-27.37 2.5-39.25-3.94-15.15-7.88-25.65-23.25-29-39.83-2.22-10.53-1.96-21.85 2.36-31.84 7.09-17.07 23.17-29.95 41.29-33.43zm379.09.07c12.65-2.47 26.13-.14 37.27 6.31 14.42 8.17 25.16 23.09 27.09 39.69 1.54 15.44-2.71 31.52-12.19 43.88-7.89 10.48-19.71 18.04-32.67 20.35-14.6 2.85-30.29-1.14-41.9-10.4-13.6-10.61-21.47-27.61-22.24-44.7-1.91-26.26 19.36-50.41 44.64-55.13z" fill="#fbfbfb"/></svg>