<svg xmlns="http://www.w3.org/2000/svg" height="800" width="1200" viewBox="-44.6283 -16.15175 386.7786 96.9105"><radialGradient gradientUnits="userSpaceOnUse" gradientTransform="matrix(1.3475 0 0 -1.3475 -512.7371 244.0134)" r="32.3039" cy="168.4126" cx="396.0381" id="a"><stop offset="0" stop-color="#fd9196"/><stop offset="1" stop-color="#f30713"/></radialGradient><path d="M32.303 0C14.471 0 0 14.471 0 32.303c0 17.832 14.472 32.304 32.303 32.304 17.833 0 32.303-14.472 32.303-32.304S50.136 0 32.303 0z" fill="url(#a)"/><path d="M32.413 2.091c-17.073 0-30.927 13.854-30.927 30.927S15.34 63.955 32.413 63.955 63.35 50.092 63.35 33.018 49.486 2.091 32.413 2.091zm.009.719c.18 0 .365.056.51.16.16.113.276.272.341.453v.01l.009.009 1.031 3.743c13.412.973 24.008 12.174 24.008 25.833 0 4.032-.925 7.854-2.571 11.258l2.656 2.675.009.01.01.009a.897.897 0 01.217.511c.017.182-.018.374-.114.538a.8951.8951 0 01-.406.369c-.175.08-.366.1-.549.065h-.028l-3.648-.954c-4.659 6.893-12.549 11.428-21.484 11.428-8.935 0-16.819-4.535-21.475-11.428l-3.638.965h-.029c-.204.037-.391-.004-.548-.076a.8992.8992 0 01-.406-.369c-.089-.154-.132-.347-.113-.528a.9095.9095 0 01.217-.512l.009-.009.01-.009 2.646-2.675c-1.648-3.408-2.57-7.231-2.57-11.268 0-13.664 10.597-24.869 24.017-25.833l1.012-3.733.009-.019v-.01c.064-.181.181-.34.341-.453.163-.116.347-.16.527-.16z" opacity=".66"/><radialGradient gradientUnits="userSpaceOnUse" gradientTransform="matrix(1.1559 1.1559 1.0476 -1.0476 -823.7297 -123.0123)" r="46.4129" cy="334.4487" cx="409.8008" id="b"><stop offset=".0476" stop-color="#e4ebee"/><stop offset=".2722" stop-color="#f5f8f9"/><stop offset=".4667" stop-color="#fff"/><stop offset=".7524" stop-color="#bfc1c3"/><stop offset=".8667" stop-color="#dce0e6"/><stop offset=".9048" stop-color="#e2e6ed"/><stop offset="1" stop-color="#bcbec0"/></radialGradient><path d="M32.3 1.373C15.227 1.373 1.373 15.226 1.373 32.3c0 17.074 13.854 30.937 30.927 30.937 17.074 0 30.936-13.863 30.936-30.937S49.373 1.373 32.3 1.373z" fill="url(#b)"/><path d="M69.946 5.162l11.914 36.38v17.77h11.755v-17.77l11.242-36.38H94.231l-6.676 23.641-6.484-23.641zm73.377 0v54.149h9.777V24.195l5.604 35.116h7.382l5.592-35.116v35.116h9.961V5.162h-14.93l-4.258 25.759-4.104-25.759zm83.67 0v54.149h10.898V36.49h9.283v22.821h10.639V5.162h-10.639v21.542h-9.283V5.162zm46.303-.01l-9.417 54.157h10.629l2.096-13.229h8.144l2.053 13.229h10.721l-9.42-54.157zm7.469 11.876l2.771 19.593h-5.659zM196.969 5.152l-9.417 54.157h10.629l2.096-13.229h8.145l2.052 13.229h10.722l-9.42-54.157zm7.469 11.876l2.771 19.593h-5.659zM113.343 5.152l-9.418 54.157h10.629l2.095-13.229h8.145l2.052 13.229h10.722l-9.419-54.157zm7.468 11.876l2.772 19.593h-5.66z" fill="#f30711"/></svg>